<?xml version="1.0" encoding="utf-8"?>
<!-- Generator: Adobe Illustrator 22.0.1, SVG Export Plug-In . SVG Version: 6.00 Build 0)  -->
<svg version="1.1" xmlns="http://www.w3.org/2000/svg" xmlns:xlink="http://www.w3.org/1999/xlink" x="0px" y="0px"
	 viewBox="0 0 165.1 217.8" style="enable-background:new 0 0 165.1 217.8;" xml:space="preserve">
<style type="text/css">
	.st0{display:none;}
	.st1{fill:#FFFFFF;stroke:#000000;stroke-miterlimit:10;}
	.st2{fill:#FFFFFF;stroke:#000000;stroke-width:0.75;stroke-miterlimit:10;}
	.st3{fill:#FFFFFF;stroke:#000000;stroke-width:0.5;stroke-miterlimit:10;}
</style>
<g id="Layer_1" class="st0">
	
		<image style="display:inline;overflow:visible;" width="32" height="32" xlink:href="../Downloads/locked.png"  transform="matrix(5.0927 0 0 5.0927 56 22)">
	</image>
</g>
<g id="Layer_2">
	<g>
		<path class="st1" d="M117.6,70.3c-10.1-5.8-21.9-9.1-34.4-9.1c-12,0-23.3,3.1-33.2,8.5c-31.4,17.2-48.2,57.9-26.4,98.2
			c5.1,9.4,12.8,17.2,22.3,22.3c53,28.7,106.7-9.3,106.7-59.5C152.6,104.8,138.5,82.3,117.6,70.3z M46.5,184.8
			c-7.2-4.2-13.3-10.2-17.4-17.4C7.6,130.2,21.8,92.3,50,75.3c9.7-5.8,21-9.2,33.2-9.2c12.6,0,24.4,3.6,34.4,10
			c18.1,11.5,30.1,31.6,30.1,54.6C147.7,177.9,96.4,213.5,46.5,184.8z"/>
	</g>
	<path class="st2" d="M117,25.5v43.9c-1.4-0.7-2.8-1.4-4.3-2V29.3c-0.2-8.4-5.8-11.3-12.9-11.3H66.6c-7.1,0-13.1,2.9-12.9,11.3v37.6
		c-1.5,0.6-2.9,1.2-4.3,1.9V25.5c0-6.4,6.4-11.5,14.2-11.5h39.2C110.6,14,117,19.2,117,25.5z"/>
	<g>
		<path class="st3" d="M83.2,157.5c-14.9,0-27-12.1-27-27c0-14.9,12.1-27,27-27s27,12.1,27,27C110.1,145.4,98,157.5,83.2,157.5z
			 M83.2,106.8c-13.1,0-23.8,10.7-23.8,23.8c0,13.1,10.7,23.8,23.8,23.8s23.8-10.7,23.8-23.8C107,117.5,96.3,106.8,83.2,106.8z"/>
	</g>
</g>
</svg>
