<?xml version="1.0" encoding="utf-8"?>
<!-- Generator: Adobe Illustrator 22.0.1, SVG Export Plug-In . SVG Version: 6.00 Build 0)  -->
<svg version="1.1" xmlns="http://www.w3.org/2000/svg" xmlns:xlink="http://www.w3.org/1999/xlink" x="0px" y="0px"
	 viewBox="0 0 165.1 217.8" style="enable-background:new 0 0 165.1 217.8;" xml:space="preserve">
<style type="text/css">
	.st0{display:none;}
	.st1{fill:#FFFFFF;stroke:#000000;stroke-miterlimit:10;}
	.st2{fill:#FFFFFF;stroke:#000000;stroke-width:0.75;stroke-miterlimit:10;}
	.st3{fill:#FFFFFF;stroke:#000000;stroke-width:0.5;stroke-miterlimit:10;}
</style>
<g id="Layer_1" class="st0">
	
		<image style="display:inline;overflow:visible;" width="32" height="32" xlink:href="../Downloads/locked.png"  transform="matrix(5.0927 0 0 5.0927 56 22)">
	</image>
</g>
<g id="Layer_2">
	<g>
		<path class="st1" d="M117.6,80.3c-0.2-0.1-0.4-0.2-0.6-0.3c-1.4-0.8-2.8-1.5-4.3-2.2c-9-4.2-19-6.6-29.5-6.6
			c-10.5,0-20.5,2.4-29.5,6.6c-1.2,0.6-2.5,1.2-3.7,1.9c-0.2,0.1-0.4,0.2-0.6,0.3c-31,17.3-47.4,57.8-25.8,97.9
			c5.1,9.4,12.8,17.2,22.3,22.3c53,28.7,106.7-9.3,106.7-59.5C152.6,114.8,138.5,92.3,117.6,80.3z M46.5,194.8
			c-7.2-4.2-13.3-10.2-17.4-17.4c-21.3-36.9-7.5-74.6,20.3-91.8c0.2-0.1,0.4-0.3,0.6-0.4c1.2-0.7,2.4-1.4,3.7-2.1
			c8.8-4.6,18.9-7.1,29.5-7.1s20.7,2.6,29.5,7.1c1.5,0.7,2.9,1.6,4.3,2.4c0.2,0.1,0.4,0.2,0.6,0.4c18.1,11.5,30.1,31.6,30.1,54.6
			C147.7,187.9,96.4,223.5,46.5,194.8z"/>
	</g>
	<path class="st2" d="M117,26.9V80c-1.4-0.9-2.8-1.7-4.3-2.4v-46c-0.2-10.1-5.8-13.6-12.9-13.6H66.5c-7.1,0-13.1,3.5-12.9,13.6v25.7
		c-1.2,0.7-2.5,1.3-3.7,2.1c-0.2,0.1-0.4,0.2-0.6,0.4V26.9c0-7.7,6.3-13.9,14.2-13.9h39.2C110.6,13,117,19.2,117,26.9z"/>
	<g>
		<path class="st3" d="M83.2,167.5c-14.9,0-27-12.1-27-27c0-14.9,12.1-27,27-27s27,12.1,27,27C110.1,155.4,98,167.5,83.2,167.5z
			 M83.2,116.8c-13.1,0-23.8,10.7-23.8,23.8c0,13.1,10.7,23.8,23.8,23.8s23.8-10.7,23.8-23.8C107,127.5,96.3,116.8,83.2,116.8z"/>
	</g>
</g>
</svg>
